<?xml version="1.0" encoding="UTF-8"?>
<svg version="1.1" xmlns="http://www.w3.org/2000/svg" width="374" height="344">
<path d="M0 0 C123.42 0 246.84 0 374 0 C374 113.52 374 227.04 374 344 C250.58 344 127.16 344 0 344 C0 230.48 0 116.96 0 0 Z " fill="#CDAED3" transform="translate(0,0)"/>
<path d="M0 0 C4.74751875 -0.09273504 9.49179284 -0.17208272 14.23950195 -0.21972656 C15.84833526 -0.23962238 17.45709842 -0.26674929 19.06567383 -0.30175781 C33.39199315 -0.60533828 45.29063887 1.00800116 57 10 C57.86625 10.5775 58.7325 11.155 59.625 11.75 C67.57483093 19.28141877 72.79922792 28.88195575 73.35072327 39.89170837 C73.51468571 45.98398354 73.45025494 52.07456885 73.390625 58.16796875 C73.38315449 60.41668696 73.37746539 62.66541172 73.37347412 64.91413879 C73.3582817 70.80130331 73.31905524 76.6880662 73.2746582 82.57507324 C73.23356713 88.59491546 73.21543365 94.61482326 73.1953125 100.63476562 C73.15255448 112.42338093 73.0822572 124.21159407 73 136 C61.12 136 49.24 136 37 136 C36.9906543 133.33534668 36.98130859 130.67069336 36.97167969 127.92529297 C36.93789568 119.11618689 36.88233873 110.30731474 36.81609726 101.49839592 C36.7766069 96.15809789 36.74442597 90.81796514 36.72900391 85.47753906 C36.71384774 80.32262785 36.67942031 75.16817099 36.63169098 70.01346207 C36.61686652 68.04795407 36.60895838 66.0823812 36.60811615 64.11681747 C36.60574797 61.36107836 36.57868041 58.60659636 36.54589844 55.85107422 C36.5509288 55.04043015 36.55595917 54.22978607 36.56114197 53.39457703 C36.4650453 48.16518636 35.53936112 45.09227666 32 41 C24.25255727 35.80622026 24.25255727 35.80622026 1 37 C1 69.67 1 102.34 1 136 C-10.88 136 -22.76 136 -35 136 C-35.0093457 133.33534668 -35.01869141 130.67069336 -35.02832031 127.92529297 C-35.06210432 119.11618689 -35.11766127 110.30731474 -35.18390274 101.49839592 C-35.2233931 96.15809789 -35.25557403 90.81796514 -35.27099609 85.47753906 C-35.28615226 80.32262785 -35.32057969 75.16817099 -35.36830902 70.01346207 C-35.38313348 68.04795407 -35.39104162 66.0823812 -35.39188385 64.11681747 C-35.39425203 61.36107836 -35.42131959 58.60659636 -35.45410156 55.85107422 C-35.4490712 55.04043015 -35.44404083 54.22978607 -35.43885803 53.39457703 C-35.5349547 48.16518636 -36.46063888 45.09227666 -40 41 C-47.74744273 35.80622026 -47.74744273 35.80622026 -71 37 C-71 69.67 -71 102.34 -71 136 C-82.88 136 -94.76 136 -107 136 C-107 103 -107 70 -107 36 C-95.12 36 -83.24 36 -71 36 C-71 24.45 -71 12.9 -71 1 C-65.66412884 0.88433805 -60.33271462 0.78507819 -54.99658203 0.7253418 C-53.18686071 0.70040786 -51.37723786 0.66644757 -49.56787109 0.62280273 C-34.85231134 0.27708063 -23.8886353 1.8643125 -12.26171875 11.75 C-7.13576612 16.84939329 -3.67545907 22.31135232 -1 29 C-0.67 19.43 -0.34 9.86 0 0 Z " fill="#1A202E" transform="translate(211,97)"/>
<path d="M0 0 C0.99 0 1.98 0 3 0 C4.35439668 2.70879335 4.06501451 5.00933268 4 8 C1.84622436 5.37801226 0.59927826 3.35595828 0 0 Z " fill="#BCADCA" transform="translate(207,120)"/>
<path d="M0 0 C1.875 0.25 1.875 0.25 4 1 C5.25 3.0625 5.25 3.0625 6 5 C5.01 5.495 5.01 5.495 4 6 C4 5.34 4 4.68 4 4 C3.01 4.33 2.02 4.66 1 5 C0.67 3.35 0.34 1.7 0 0 Z " fill="#201E34" transform="translate(200,114)"/>
</svg>
